# xmcd
#
# Track frame offsets:
#   150
#   5321
#   19803
#   20272
#   30654
#   43743
#   44440
#   55005
#   68555
#   80233
#   90434
#   102540
#   117402
#   126543
#   137205
#   155823
#   156830
#   171928
#   196294
#
# Disc length: 2847 seconds
#
# Revision: 0
# Processed by: cddbd v1.4PL0 Copyright (c) Steve Scherf et al.
# Submitted via: uFREEDB 1.6.0
#
DISCID=050b1d13
DTITLE=Coletânea - Carro dourado
DYEAR=2003
DGENRE=Country
TTITLE0=Abertura DJ Celso
TTITLE1=Palmas para o amor - Rio Negro e Solimões
TTITLE2=Abertura DJ
TTITLE3=As muié tem uma coisa que o homem sempre quer
TTITLE4=É um pizero só
TTITLE5=Abertura solo
TTITLE6=Careca 
TTITLE7=forró do Alibabã
TTITLE8=Gino e Geno no bailão
TTITLE9=Barbaridade isso é bom que mete medo
TTITLE10=Chumbo nele - Pé de Pano
TTITLE11=Vai chover mulher
TTITLE12=O tamanho do cacete - Teodoro e Sampaio
TTITLE13=Abertura Eutrepocemia
TTITLE14=Eutrepocemia
TTITLE15=No Balanço do Busão
TTITLE16=Sugeito Apaixonado
TTITLE17=
TTITLE18=
EXTD=
EXTT0=
EXTT1=
EXTT2=
EXTT3=
EXTT4=
EXTT5=
EXTT6=
EXTT7=
EXTT8=
EXTT9=
EXTT10=
EXTT11=
EXTT12=
EXTT13=
EXTT14=
EXTT15=
EXTT16=
EXTT17=
EXTT18=
PLAYORDER=
